# xmcd
#
# Track frame offsets:
# 150
# 14028
# 30733
# 48794
# 61199
# 84238
# 95814
# 109628
# 123394
# 135076
# 150127
# 162048
#
# Disc length: 2425 seconds
#
#
# Revision: 0
# Processed by: cddbd v1.5.2PL0 Copyright (c) Steve Scherf et al.
# Submitted via: FreeRIP 2.944 
#
DISCID=8209770c
DTITLE=The Flanks - Field Days
DYEAR=2008
DGENRE=Country
TTITLE0=Adelaide
TTITLE1=Low in the Hole
TTITLE2=Over the Moon
TTITLE3=Snubnosed Grindstone Cowboy
TTITLE4=Gin and Sympathy
TTITLE5=Out with the Wrong Woman
TTITLE6=Hairpin Turn
TTITLE7=Anna Lee
TTITLE8=Country Song
TTITLE9=3rd Rail (Jump Back, Jimmy!)
TTITLE10=Sweet Potato Man
TTITLE11=Tongue-Tied
EXTD=
EXTT0=T. Bouman
EXTT1=D. Mulligan - N. Capodice
EXTT2=D. Mulligan - M. Mitchell
EXTT3=D. Mulligan
EXTT4=D. Mulligan
EXTT5=Traditional
EXTT6=D. Mulligan
EXTT7=T. Bouman
EXTT8=T. Bouman
EXTT9=D. Mulligan
EXTT10=N. Capodice
EXTT11=D. Mulligan - M. Mitchell
PLAYORDER=
